<svg width="341" height="341" viewBox="0 0 341 341" fill="none" xmlns="http://www.w3.org/2000/svg">
<g style="mix-blend-mode:color-dodge" filter="url(#filter0_d_1_2)">
<rect width="333" height="333" transform="translate(4)" fill="white"/>
<path d="M4 166.5V333H170.5H337V166.5V-1.17421e-05H170.5H4V166.5ZM166.238 110.889C167.769 111.272 168.935 111.888 170.001 112.837C170.417 113.22 173.913 117.199 177.759 121.695C185.785 131.085 185.901 131.252 185.901 133.516C185.901 134.748 185.835 135.098 185.418 135.981C184.852 137.213 183.537 138.545 182.371 139.044C181.339 139.51 179.358 139.644 178.309 139.311C177.893 139.177 176.094 138.212 174.313 137.163C170.4 134.832 169.801 134.532 168.036 133.966C164.989 133.017 161.709 133 158.728 133.949C157.363 134.382 152.102 136.647 149.937 137.745C147.273 139.077 144.959 141.275 143.377 143.973L142.878 144.855L163.474 144.888L184.07 144.938L184.852 145.305C186.567 146.087 187.749 148.035 187.616 149.85C187.55 150.616 186.434 153.313 180.94 165.901C177.31 174.242 174.363 181.085 174.396 181.119C174.679 181.385 183.97 180.486 185.985 180.003C186.301 179.92 186.767 179.803 187.033 179.753C187.416 179.67 187.483 179.57 187.483 179.071C187.483 177.489 188.782 175.641 190.463 174.858C191.229 174.509 191.512 174.459 192.711 174.525C194.293 174.609 195.042 174.942 196.108 176.007C197.09 177.006 197.523 178.222 197.44 179.737C197.307 181.635 196.391 183.067 194.726 183.949C194.01 184.332 193.693 184.399 192.478 184.399C191.263 184.399 190.946 184.332 190.214 183.949C189.747 183.699 189.065 183.167 188.715 182.767L188.066 182.034L186.168 182.417C183.154 183.017 180.34 183.333 176.694 183.433L173.314 183.533L173.097 183.966C172.964 184.199 171.432 187.695 169.668 191.725C167.903 195.754 166.021 200.066 165.472 201.298C163.84 204.995 163.69 205.677 164.007 207.459C164.523 210.323 166.521 212.437 169.285 213.053C171.616 213.57 173.913 212.904 175.595 211.222C178.292 208.525 178.292 204.229 175.595 201.532C174.196 200.15 172.381 199.467 170.05 199.467H169.185L170.483 196.503C171.199 194.888 172.098 192.84 172.481 191.958L173.181 190.359L174.246 190.576C179.791 191.741 184.453 196.037 186.201 201.565C188.049 207.426 186.318 214.002 181.839 218.165C178.675 221.079 175.045 222.527 170.833 222.511C166.238 222.511 162.541 220.995 159.328 217.799C155.865 214.352 154.15 209.557 154.683 204.828C154.999 201.964 154.916 202.164 159.678 191.342C161.759 186.613 163.44 182.717 163.407 182.684C163.39 182.65 162.475 182.451 161.392 182.234C157.43 181.452 153.617 180.353 150.104 178.954C148.156 178.188 144.576 176.407 143.261 175.574C142.761 175.258 142.328 174.991 142.295 174.991C142.245 174.991 141.795 175.424 141.279 175.974C140.13 177.173 139.598 177.472 133.953 179.903C131.489 180.985 127.993 182.501 126.211 183.267C119.718 186.114 119.934 186.03 118.402 186.114C117.603 186.164 116.621 186.097 116.071 185.98C113.99 185.531 111.859 183.899 110.926 182.051C110.66 181.518 106.314 171.595 101.269 160.006C91.1961 136.88 91.4958 137.662 91.8787 135.315C92.2783 132.95 93.8934 130.636 95.8414 129.654C96.8737 129.137 114.439 121.495 115.189 121.245C118.236 120.213 122.198 121.662 123.963 124.459C124.246 124.908 124.879 126.207 125.379 127.323C125.861 128.455 126.278 129.37 126.311 129.37C126.344 129.37 126.561 128.971 126.794 128.488C128.775 124.559 133.104 122.477 137.283 123.443C140.28 124.142 140.946 123.993 146.674 121.462C149.105 120.396 151.502 119.331 152.002 119.081C153.334 118.431 154.566 117.216 155.548 115.584C156.631 113.786 157.929 112.487 159.461 111.672C161.609 110.539 163.873 110.273 166.238 110.889ZM258.762 133.283C259.611 133.583 260.41 134.182 260.993 134.932C261.226 135.231 262.058 137.129 262.841 139.127C263.623 141.142 265.055 144.788 266.021 147.269C266.987 149.733 268.868 154.529 270.184 157.925C271.516 161.305 272.698 164.419 272.831 164.818C273.347 166.433 272.997 168.132 271.865 169.414C271.083 170.313 270.683 170.529 267.803 171.645C266.62 172.094 262.957 173.526 259.661 174.825C256.364 176.124 253.3 177.322 252.834 177.489C252.385 177.655 249.871 178.621 247.257 179.653C244.642 180.669 239.631 182.634 236.101 184.016C232.571 185.381 226.844 187.629 223.364 188.977C219.318 190.559 216.537 191.558 215.622 191.741C213.973 192.074 212.142 191.991 210.46 191.508C208.412 190.909 197.723 186.813 197.523 186.53C197.107 185.997 197.273 185.381 198.056 184.449C200.237 181.901 200.587 178.438 198.922 175.624C197.873 173.826 195.442 172.228 193.527 172.061C192.212 171.945 191.712 171.711 191.479 171.162C191.296 170.712 191.446 170.329 194.143 164.968C195.725 161.821 197.307 158.791 197.673 158.242C198.505 156.91 200.453 155.078 201.719 154.395C202.268 154.112 205.348 152.847 208.545 151.598C211.759 150.349 218.302 147.785 223.114 145.904C227.926 144.039 233.92 141.691 236.434 140.709C247.29 136.447 255.282 133.333 255.748 133.2C256.447 132.967 257.996 133.017 258.762 133.283ZM87.9993 145.321C89.1814 145.871 89.9473 146.686 90.63 148.152C90.963 148.868 93.4438 154.529 96.1578 160.756C98.8717 166.983 101.303 172.561 101.586 173.16C101.852 173.759 103.284 177.056 104.782 180.486L107.513 186.73L102.501 186.78C99.7542 186.796 97.4565 186.763 97.3899 186.696C97.3233 186.613 94.2597 179.67 90.58 171.245C86.9004 162.82 83.7202 155.544 83.5204 155.095L83.1541 154.262H77.3932H71.649L70.5168 153.679C68.7019 152.747 67.8028 151.149 67.986 149.151C68.1691 147.119 69.6676 145.438 71.649 145.021C72.0319 144.938 75.6783 144.888 79.7575 144.905C87.1002 144.938 87.1668 144.938 87.9993 145.321ZM157.18 190.26C157.18 190.343 156.281 192.407 155.199 194.888L153.234 199.384L125.112 199.467C99.3712 199.55 96.9237 199.567 96.3076 199.833C95.0755 200.316 94.5427 200.649 93.7269 201.415C89.581 205.294 91.7122 212.104 97.4065 213.153C100.17 213.669 103.434 211.888 104.699 209.174C105.032 208.425 105.149 207.875 105.199 206.71C105.265 205.261 105.115 204.545 104.483 203.08C104.366 202.814 104.666 202.797 109.278 202.797H114.206L114.34 203.413C114.406 203.763 114.473 205.211 114.456 206.626C114.439 208.708 114.373 209.457 114.09 210.506C112.508 216.267 107.946 220.712 102.118 222.144C100.37 222.577 96.9237 222.644 95.3419 222.294C89.0149 220.879 84.3862 216.517 82.7212 210.406C82.1718 208.441 82.1884 204.345 82.7212 202.331C84.1531 197.019 88.2324 192.69 93.3939 190.975C95.8414 190.16 95.3752 190.176 127.26 190.16C143.71 190.143 157.18 190.193 157.18 190.26Z" fill="black"/>
<path d="M160.976 113.986C160.094 114.452 159.761 115.734 160.26 116.717C160.627 117.432 161.143 117.716 162.058 117.716C162.758 117.716 162.958 117.632 163.44 117.149C163.923 116.667 164.007 116.467 164.007 115.817C164.007 115.368 163.89 114.852 163.74 114.619C163.174 113.769 161.909 113.47 160.976 113.986Z" fill="black"/>
<path d="M167.053 116.384C165.588 117.266 165.721 119.214 167.303 119.913C168.003 120.23 168.069 120.23 168.752 119.963C169.917 119.53 170.4 118.448 169.934 117.333C169.468 116.184 168.102 115.734 167.053 116.384Z" fill="black"/>
<path d="M158.912 119.947C158.129 120.296 157.68 120.962 157.68 121.811C157.68 122.411 157.779 122.661 158.246 123.177C158.762 123.743 158.895 123.793 159.678 123.793C160.46 123.793 160.593 123.743 161.109 123.177C161.576 122.661 161.676 122.411 161.676 121.811C161.676 120.996 161.276 120.363 160.51 119.963C159.927 119.664 159.578 119.664 158.912 119.947Z" fill="black"/>
<path d="M165.222 122.161C164.623 122.278 163.873 123.093 163.74 123.776C163.524 124.975 164.539 126.207 165.755 126.207C166.754 126.207 167.836 125.125 167.836 124.109C167.836 123.66 167.337 122.744 166.937 122.494C166.521 122.211 165.738 122.061 165.222 122.161Z" fill="black"/>
<path d="M116.554 125.691C116.321 125.774 112.059 127.606 107.064 129.77C100.487 132.634 97.8394 133.866 97.4564 134.249C96.7571 134.915 96.3409 135.997 96.4574 136.846C96.5573 137.646 112.441 174.176 113.008 174.958C113.224 175.258 113.723 175.657 114.09 175.841C115.438 176.523 115.721 176.44 125.712 172.078C130.707 169.897 134.986 167.982 135.235 167.799C136.035 167.233 136.451 166.367 136.434 165.251C136.417 164.319 135.918 163.12 128.342 145.771C123.913 135.598 120.134 127.073 119.984 126.84C119.817 126.59 119.301 126.19 118.835 125.957C117.986 125.541 117.32 125.458 116.554 125.691Z" fill="black"/>
<path d="M133.088 128.122C132.621 128.355 132.155 128.638 132.072 128.754C131.955 128.888 132.105 129.404 132.538 130.37L133.171 131.785L131.706 132.484L130.24 133.167L130.357 133.733C130.523 134.465 131.173 135.698 131.439 135.797C131.556 135.847 132.272 135.614 133.054 135.281C133.82 134.948 134.469 134.732 134.503 134.815C134.519 134.882 134.802 135.514 135.102 136.197C135.735 137.646 135.918 137.729 137.183 137.196C138.565 136.597 138.599 136.497 137.933 134.948C137.616 134.216 137.383 133.55 137.433 133.45C137.466 133.367 138.099 133.017 138.848 132.717C139.581 132.401 140.197 132.051 140.197 131.951C140.197 131.518 139.664 130.253 139.298 129.787L138.898 129.304L137.466 129.937C136.667 130.286 136.001 130.553 135.985 130.519C135.951 130.486 135.668 129.853 135.352 129.121C134.669 127.556 134.436 127.456 133.088 128.122Z" fill="black"/>
<path d="M137.2 154.362C137.2 154.429 138.515 157.509 140.13 161.205C141.729 164.902 143.161 168.332 143.294 168.831C143.56 169.847 143.577 170.879 143.377 171.961L143.227 172.694L144.093 173.243C148.639 176.14 155.532 178.671 162.491 179.987C163.524 180.186 164.423 180.303 164.473 180.236C164.639 180.07 175.778 154.429 175.712 154.362C175.595 154.229 137.2 154.229 137.2 154.362Z" fill="black"/>
<path d="M126.477 173.077C124.846 173.659 123.88 175.041 123.88 176.823C123.88 178.321 124.563 179.47 125.861 180.203C127.893 181.352 130.29 180.553 131.306 178.405C132.039 176.856 131.755 175.358 130.457 174.059C129.308 172.894 127.926 172.561 126.477 173.077Z" fill="black"/>
<path d="M191.479 177.539C190.88 177.839 190.314 178.771 190.314 179.47C190.314 180.603 191.362 181.651 192.495 181.651C193.094 181.651 193.993 181.119 194.326 180.586C195.425 178.788 193.36 176.59 191.479 177.539Z" fill="black"/>
</g>
<defs>
<filter id="filter0_d_1_2" x="0" y="0" width="341" height="341" filterUnits="userSpaceOnUse" color-interpolation-filters="sRGB">
<feFlood flood-opacity="0" result="BackgroundImageFix"/>
<feColorMatrix in="SourceAlpha" type="matrix" values="0 0 0 0 0 0 0 0 0 0 0 0 0 0 0 0 0 0 127 0" result="hardAlpha"/>
<feOffset dy="4"/>
<feGaussianBlur stdDeviation="2"/>
<feComposite in2="hardAlpha" operator="out"/>
<feColorMatrix type="matrix" values="0 0 0 0 0 0 0 0 0 0 0 0 0 0 0 0 0 0 0.25 0"/>
<feBlend mode="normal" in2="BackgroundImageFix" result="effect1_dropShadow_1_2"/>
<feBlend mode="normal" in="SourceGraphic" in2="effect1_dropShadow_1_2" result="shape"/>
</filter>
</defs>
</svg>
