<?xml version="1.0" standalone="no"?>
<!DOCTYPE svg PUBLIC "-//W3C//DTD SVG 20010904//EN"
 "http://www.w3.org/TR/2001/REC-SVG-20010904/DTD/svg10.dtd">
<svg version="1.0" xmlns="http://www.w3.org/2000/svg"
 width="2000.000000pt" height="2000.000000pt" viewBox="0 0 2000.000000 2000.000000"
 preserveAspectRatio="xMidYMid meet">

<g transform="translate(0.000000,2000.000000) scale(0.100000,-0.100000)"
fill="#000000" stroke="none">
<path d="M0 10000 l0 -10000 10000 0 10000 0 0 10000 0 10000 -10000 0 -10000
0 0 -10000z m9744 3340 c92 -23 162 -60 226 -117 25 -23 235 -262 466 -532
482 -564 489 -574 489 -710 0 -74 -4 -95 -29 -148 -34 -74 -113 -154 -183
-184 -62 -28 -181 -36 -244 -16 -25 8 -133 66 -240 129 -235 140 -271 158
-377 192 -183 57 -380 58 -559 1 -82 -26 -398 -162 -528 -228 -160 -80 -299
-212 -394 -374 l-30 -53 1237 -2 1237 -3 47 -22 c103 -47 174 -164 166 -273
-4 -46 -71 -208 -401 -964 -218 -501 -395 -912 -393 -914 17 -16 575 38 696
67 19 5 47 12 63 15 23 5 27 11 27 41 0 95 78 206 179 253 46 21 63 24 135 20
95 -5 140 -25 204 -89 59 -60 85 -133 80 -224 -8 -114 -63 -200 -163 -253 -43
-23 -62 -27 -135 -27 -73 0 -92 4 -136 27 -28 15 -69 47 -90 71 l-39 44 -114
-23 c-181 -36 -350 -55 -569 -61 l-203 -6 -13 -26 c-8 -14 -100 -224 -206
-466 -106 -242 -219 -501 -252 -575 -98 -222 -107 -263 -88 -370 31 -172 151
-299 317 -336 140 -31 278 9 379 110 162 162 162 420 0 582 -84 83 -193 124
-333 124 l-52 0 78 178 c43 97 97 220 120 273 l42 96 64 -13 c333 -70 613
-328 718 -660 111 -352 7 -747 -262 -997 -190 -175 -408 -262 -661 -261 -276
0 -498 91 -691 283 -208 207 -311 495 -279 779 19 172 14 160 300 810 125 284
226 518 224 520 -1 2 -56 14 -121 27 -238 47 -467 113 -678 197 -117 46 -332
153 -411 203 -30 19 -56 35 -58 35 -3 0 -30 -26 -61 -59 -69 -72 -101 -90
-440 -236 -148 -65 -358 -156 -465 -202 -390 -171 -377 -166 -469 -171 -48 -3
-107 1 -140 8 -125 27 -253 125 -309 236 -16 32 -277 628 -580 1324 -605 1389
-587 1342 -564 1483 24 142 121 281 238 340 62 31 1117 490 1162 505 183 62
421 -25 527 -193 17 -27 55 -105 85 -172 29 -68 54 -123 56 -123 2 0 15 24 29
53 119 236 379 361 630 303 180 -42 220 -33 564 119 146 64 290 128 320 143
80 39 154 112 213 210 65 108 143 186 235 235 129 68 265 84 407 47z m5557
-1345 c51 -18 99 -54 134 -99 14 -18 64 -132 111 -252 47 -121 133 -340 191
-489 58 -148 171 -436 250 -640 80 -203 151 -390 159 -414 31 -97 10 -199 -58
-276 -47 -54 -71 -67 -244 -134 -71 -27 -291 -113 -489 -191 -198 -78 -382
-150 -410 -160 -27 -10 -178 -68 -335 -130 -157 -61 -458 -179 -670 -262 -212
-82 -556 -217 -765 -298 -243 -95 -410 -155 -465 -166 -99 -20 -209 -15 -310
14 -123 36 -765 282 -777 299 -25 32 -15 69 32 125 131 153 152 361 52 530
-63 108 -209 204 -324 214 -79 7 -109 21 -123 54 -11 27 -2 50 160 372 95 189
190 371 212 404 50 80 167 190 243 231 33 17 218 93 410 168 193 75 586 229
875 342 289 112 649 253 800 312 652 256 1132 443 1160 451 42 14 135 11 181
-5z m-10256 -723 c71 -33 117 -82 158 -170 20 -43 169 -383 332 -757 163 -374
309 -709 326 -745 16 -36 102 -234 192 -440 l164 -375 -301 -3 c-165 -1 -303
1 -307 5 -4 5 -188 422 -409 928 -221 506 -412 943 -424 970 l-22 50 -346 0
-345 0 -68 35 c-109 56 -163 152 -152 272 11 122 101 223 220 248 23 5 242 8
487 7 441 -2 445 -2 495 -25z m4155 -2699 c0 -5 -54 -129 -119 -278 l-118
-270 -1689 -5 c-1546 -5 -1693 -6 -1730 -22 -74 -29 -106 -49 -155 -95 -249
-233 -121 -642 221 -705 166 -31 362 76 438 239 20 45 27 78 30 148 4 87 -5
130 -43 218 -7 16 11 17 288 17 l296 0 8 -37 c4 -21 8 -108 7 -193 -1 -125 -5
-170 -22 -233 -95 -346 -369 -613 -719 -699 -105 -26 -312 -30 -407 -9 -380
85 -658 347 -758 714 -33 118 -32 364 0 485 86 319 331 579 641 682 147 49
119 48 2034 49 988 1 1797 -2 1797 -6z"/>
<path d="M9428 13154 c-53 -28 -73 -105 -43 -164 22 -43 53 -60 108 -60 42 0
54 5 83 34 29 29 34 41 34 80 0 27 -7 58 -16 72 -34 51 -110 69 -166 38z"/>
<path d="M9793 13010 c-88 -53 -80 -170 15 -212 42 -19 46 -19 87 -3 70 26 99
91 71 158 -28 69 -110 96 -173 57z"/>
<path d="M9304 12796 c-47 -21 -74 -61 -74 -112 0 -36 6 -51 34 -82 31 -34 39
-37 86 -37 47 0 55 3 86 37 28 31 34 46 34 82 0 49 -24 87 -70 111 -35 18 -56
18 -96 1z"/>
<path d="M9683 12663 c-36 -7 -81 -56 -89 -97 -13 -72 48 -146 121 -146 60 0
125 65 125 126 0 27 -30 82 -54 97 -25 17 -72 26 -103 20z"/>
<path d="M6760 12451 c-14 -5 -270 -115 -570 -245 -395 -172 -554 -246 -577
-269 -42 -40 -67 -105 -60 -156 6 -48 960 -2242 994 -2289 13 -18 43 -42 65
-53 81 -41 98 -36 698 226 300 131 557 246 572 257 48 34 73 86 72 153 -1 56
-31 128 -486 1170 -266 611 -493 1123 -502 1137 -10 15 -41 39 -69 53 -51 25
-91 30 -137 16z"/>
<path d="M7753 12305 c-28 -14 -56 -31 -61 -38 -7 -8 2 -39 28 -97 l38 -85
-88 -42 -88 -41 7 -34 c10 -44 49 -118 65 -124 7 -3 50 11 97 31 46 20 85 33
87 28 1 -4 18 -42 36 -83 38 -87 49 -92 125 -60 83 36 85 42 45 135 -19 44
-33 84 -30 90 2 5 40 26 85 44 44 19 81 40 81 46 0 26 -32 102 -54 130 l-24
29 -86 -38 c-48 -21 -88 -37 -89 -35 -2 2 -19 40 -38 84 -41 94 -55 100 -136
60z"/>
<path d="M8000 10729 c0 -4 79 -189 176 -411 96 -222 182 -428 190 -458 16
-61 17 -123 5 -188 l-9 -44 52 -33 c273 -174 687 -326 1105 -405 62 -12 116
-19 119 -15 10 10 679 1550 675 1554 -7 8 -2313 8 -2313 0z"/>
<path d="M7356 9605 c-98 -35 -156 -118 -156 -225 0 -90 41 -159 119 -203 122
-69 266 -21 327 108 44 93 27 183 -51 261 -69 70 -152 90 -239 59z"/>
<path d="M11260 9337 c-36 -18 -70 -74 -70 -116 0 -68 63 -131 131 -131 36 0
90 32 110 64 66 108 -58 240 -171 183z"/>
</g>
</svg>
